<svg xmlns="http://www.w3.org/2000/svg" width="192" height="192" viewBox="0 0 192 192">
  <defs>
    <linearGradient id="grad" x1="0%" y1="0%" x2="100%" y2="100%">
      <stop offset="0%" style="stop-color:#3B82F6;stop-opacity:1" />
      <stop offset="100%" style="stop-color:#1D4ED8;stop-opacity:1" />
    </linearGradient>
  </defs>
  
  <!-- Background -->
  <rect width="192" height="192" rx="24" fill="url(#grad)"/>
  
  <!-- Cloud icon -->
  <g transform="translate(48, 48)">
    <path d="M48 32c-8.8 0-16 7.2-16 16 0 1.1.1 2.2.3 3.2C25.8 54.3 20 62.2 20 72c0 11 9 20 20 20h32c11 0 20-9 20-20 0-9.8-7.2-17.7-16.3-20.8.2-1 .3-2.1.3-3.2 0-8.8-7.2-16-16-16z" fill="white" opacity="0.9"/>
    <path d="M64 48c-6.6 0-12 5.4-12 12 0 .8.1 1.6.2 2.4C45.9 65.2 40 71.6 40 80c0 8.8 7.2 16 16 16h24c8.8 0 16-7.2 16-16 0-8.4-6.1-14.8-14.2-17.6.1-.8.2-1.6.2-2.4 0-6.6-5.4-12-12-12z" fill="white"/>
  </g>
  
  <!-- Text -->
  <text x="96" y="160" text-anchor="middle" fill="white" font-family="Arial, sans-serif" font-size="12" font-weight="bold">CHMURA</text>
</svg>
