<?xml version="1.0" encoding="UTF-8" standalone="no"?>
<!-- Uploaded to: SVG Repo, www.svgrepo.com, Transformed by: SVG Repo Mixer Tools -->

<svg
   width="256.00256"
   height="192.00256"
   viewBox="0 0 32.00032 24.00032"
   version="1.1"
   fill="#184ad6"
   stroke="#184ad6"
   id="svg1"
   xmlns="http://www.w3.org/2000/svg"
   xmlns:svg="http://www.w3.org/2000/svg"
   xmlns:sketch="http://www.bohemiancoding.com/sketch/ns">
  <defs
     id="defs2" />
  <g
     id="SVGRepo_bgCarrier"
     stroke-width="0"
     transform="translate(1.6e-4,1.6e-4)" />
  <g
     id="SVGRepo_tracerCarrier"
     stroke-linecap="round"
     stroke-linejoin="round"
     stroke="#cccccc"
     stroke-width="1.216"
     transform="translate(1.6e-4,1.6e-4)" />
  <g
     id="SVGRepo_iconCarrier"
     transform="translate(1.6e-4,1.6e-4)">
    <title
       id="title1">cloud</title>
    <desc
       id="desc1">Created with Sketch Beta.</desc>
    <defs
       id="defs1" />
    <g
       id="Page-1"
       stroke-width="0.00032"
       fill="none"
       fill-rule="evenodd"
       sketch:type="MSPage">
      <g
         id="Icon-Set"
         sketch:type="MSLayerGroup"
         transform="translate(-517,-779)"
         fill="#184ad6">
        <path
           d="m 539,801 h -14 c 0,0 -6.037,-0.619 -6,-6 0.021,-3.036 2.688,-5.817 6,-6 0,-4.142 2.65,-8 7,-8 3.433,0 5.723,2.096 6.538,5.014 4.955,-0.216 8.306,3.704 8.462,6.986 0.21,4.413 -4.399,8 -8,8 z m 1.067,-16.972 C 538.599,781.053 535.543,779 532,779 c -4.749,0 -8.63,3.682 -8.967,8.345 C 519.542,788.34 517,791.39 517,795 c 0,4.26 3.54,7.731 8,7.977 0,0 13.831,0.023 14,0.023 5.247,0 10,-4.253 10,-9.5 0,-5.056 -3.951,-9.177 -8.933,-9.472 z"
           id="cloud"
           sketch:type="MSShapeGroup" />
      </g>
    </g>
  </g>
</svg>
