<svg xmlns="http://www.w3.org/2000/svg" width="512" height="512" viewBox="0 0 512 512">
  <defs>
    <linearGradient id="grad" x1="0%" y1="0%" x2="100%" y2="100%">
      <stop offset="0%" style="stop-color:#3B82F6;stop-opacity:1" />
      <stop offset="100%" style="stop-color:#1D4ED8;stop-opacity:1" />
    </linearGradient>
  </defs>
  
  <!-- Background -->
  <rect width="512" height="512" rx="64" fill="url(#grad)"/>
  
  <!-- Cloud icon -->
  <g transform="translate(128, 128)">
    <path d="M128 85.33c-23.47 0-42.67 19.2-42.67 42.67 0 2.93.27 5.87.8 8.53C68.8 144.8 53.33 162.13 53.33 192c0 29.33 24 53.33 53.33 53.33h85.34c29.33 0 53.33-24 53.33-53.33 0-29.87-16.27-47.2-43.47-55.47.53-2.67.8-5.6.8-8.53 0-23.47-19.2-42.67-42.67-42.67z" fill="white" opacity="0.9"/>
    <path d="M170.67 128c-18.67 0-32 13.33-32 32 0 2.13.27 4.27.53 6.4C122.4 174.13 106.67 191.2 106.67 213.33c0 23.47 19.2 42.67 42.67 42.67h64c23.47 0 42.67-19.2 42.67-42.67 0-22.4-15.73-39.2-37.87-46.93.27-2.13.53-4.27.53-6.4 0-18.67-13.33-32-32-32z" fill="white"/>
  </g>
  
  <!-- Text -->
  <text x="256" y="426.67" text-anchor="middle" fill="white" font-family="Arial, sans-serif" font-size="32" font-weight="bold">CHMURA</text>
</svg>
